<svg width="45" height="48" viewBox="0 0 45 48" fill="none" xmlns="http://www.w3.org/2000/svg">
<path d="M18 42L16.742 43.6881L18 44.6255L19.258 43.6881L18 42ZM18 42C19.258 43.6881 19.2583 43.6879 19.2586 43.6876L19.2596 43.6869L19.2625 43.6847L19.2717 43.6778L19.304 43.6535C19.3316 43.6327 19.3712 43.6028 19.422 43.5641C19.5235 43.4867 19.6699 43.3743 19.8547 43.2299C20.2241 42.9413 20.7481 42.5244 21.3752 42.0043C22.6264 40.9666 24.3028 39.5064 25.9869 37.8264C27.6621 36.1551 29.3943 34.2178 30.7213 32.2241C32.0122 30.2846 33.1053 28.0201 33.1053 25.75C33.1053 22.4205 31.0986 19.6552 28.3672 17.8168C25.6227 15.9695 21.9509 14.8947 18 14.8947C14.0491 14.8947 10.3773 15.9695 7.63277 17.8168C4.90136 19.6552 2.89474 22.4205 2.89474 25.75C2.89474 28.0201 3.98776 30.2846 5.2787 32.2241C6.60567 34.2178 8.33788 36.1551 10.0131 37.8264C11.6972 39.5064 13.3736 40.9666 14.6248 42.0043C15.2519 42.5244 15.7759 42.9413 16.1453 43.2299C16.3301 43.3743 16.4765 43.4867 16.578 43.5641C16.6288 43.6028 16.6684 43.6327 16.696 43.6535L16.7283 43.6778L16.7375 43.6847L16.7404 43.6869L16.7414 43.6876C16.7417 43.6879 16.742 43.6881 18 42Z" fill="black" stroke="black" stroke-width="4.21053"/>
<path d="M18.6299 38.8419C18.9298 38.6018 19.6308 38.0283 20.7559 37.3598C21.881 36.6896 23.4287 35.9244 25.4254 35.2991L27.0526 29.3794C26.4412 29.4779 24.7411 29.8786 24.5753 29.9236L25.548 25.7226C24.9366 25.7745 23.3541 26.1838 23.2365 26.227L23.8015 22.6203C23.2149 22.6531 22.3135 22.7758 20.9547 23.2871L18.6316 19.8945L16.3084 23.2871C14.9496 22.7758 14.0482 22.6531 13.4616 22.6203L14.0267 26.227C13.909 26.1856 12.3265 25.7762 11.7151 25.7226L12.6878 29.9236C12.5221 29.8786 10.822 29.4796 10.2105 29.3794L11.8377 35.2991C13.8344 35.9244 15.3838 36.6896 16.5072 37.3598C17.6324 38.0283 18.3333 38.6018 18.6332 38.8419M24.4875 34.1867C21.9655 33.9587 20.7078 33.4767 20.0351 33.2124C20.0483 33.2055 20.0632 33.1952 20.0765 33.1883C22.1312 31.9964 24.1909 31.3331 25.3542 31.0066L24.4859 34.1867H24.4875ZM18.6299 37.2856C17.4136 36.3787 16.0416 35.6636 14.9049 35.1505C15.8494 34.9778 17.0342 34.698 18.6299 33.9483C20.224 34.698 21.4137 34.9795 22.3549 35.1505C21.2165 35.6636 19.8445 36.3787 18.6299 37.2856ZM11.904 31.0049C13.0672 31.3314 15.1269 31.9964 17.1817 33.1865C17.1966 33.1934 17.2098 33.2038 17.2231 33.2107C16.5503 33.4767 15.291 33.9569 12.7706 34.1849L11.9023 31.0049H11.904ZM17.3706 28.9856C15.861 29.6886 14.6215 29.8614 13.9057 29.8907L13.3075 27.3101C15.2164 27.8196 16.7923 28.6626 17.3706 28.9856ZM17.3175 25.0662C16.3863 25.5309 15.6638 25.7969 15.1866 25.9334L14.9032 24.13C15.4501 24.2768 16.2703 24.5532 17.3175 25.068M18.6282 22.0295L19.813 23.7621C19.4452 23.9331 19.0491 24.1317 18.6282 24.3615C18.2074 24.1317 17.8113 23.9314 17.4435 23.7621L18.6282 22.0295ZM22.3533 24.13L22.0699 25.9334C21.591 25.7969 20.8702 25.5309 19.939 25.0662C20.9862 24.5532 21.8064 24.2751 22.3533 24.1283M18.6282 25.7693C19.7285 26.3756 20.5869 26.74 21.2132 26.9577C20.4278 27.2945 19.5512 27.7315 18.6282 28.2947C17.7053 27.7315 16.8287 27.2963 16.0433 26.9577C16.6696 26.7383 17.528 26.3756 18.6282 25.7693ZM18.6282 32.5733C17.6705 32.0845 17.0673 31.6406 15.4534 30.9392C16.3399 30.7492 17.4252 30.3899 18.6282 29.7266C19.8296 30.3899 20.915 30.7492 21.8031 30.9392C20.1925 31.6423 19.5844 32.0845 18.6282 32.5733ZM23.9506 27.3101L23.3525 29.8907C22.6366 29.8596 21.3972 29.6886 19.8876 28.9856C20.4659 28.6626 22.0417 27.8196 23.9506 27.3101Z" fill="white"/>
<circle cx="32.8421" cy="14.1053" r="11.0526" fill="#E9E9E9" stroke="black" stroke-width="2.10526"/>
</svg>
